<?xml version="1.0" encoding="UTF-8"?>
<!-- Created with Inkscape (http://www.inkscape.org/) -->
<svg width="99.568mm" height="30.226mm" version="1.1" viewBox="0 0 99.568 30.226" xmlns="http://www.w3.org/2000/svg" xmlns:cc="http://creativecommons.org/ns#" xmlns:dc="http://purl.org/dc/elements/1.1/" xmlns:rdf="http://www.w3.org/1999/02/22-rdf-syntax-ns#">
 <metadata>
  <rdf:RDF>
   <cc:Work rdf:about="">
    <dc:format>image/svg+xml</dc:format>
    <dc:type rdf:resource="http://purl.org/dc/dcmitype/StillImage"/>
    <dc:title/>
   </cc:Work>
  </rdf:RDF>
 </metadata>
 <g transform="translate(-44.899 -43.951)">
  <g transform="translate(8.1265 -53.106)" stroke-width=".084667">
   <path d="m36.773 112.17v-15.113h99.568v30.226h-99.568z" fill="#fdfdfd"/>
   <path d="m69.581 127.19c-3.6851-0.53104-6.8307-3.3447-7.7457-6.9284-0.38549-1.5098-0.3687-3.5105 0.04266-5.0851 0.64928-2.4852 2.5556-4.7698 4.9514-5.9339 2.4624-1.1965 5.3961-1.2797 8.128-0.23061 0.75825 0.29118 1.7315 0.81678 2.106 1.1374 0.41619 0.35624 0.42293 0.34602 0.45367-0.68786l0.02266-0.762h3.3867v18.119h-3.3867l-0.02284-0.67733c-0.03099-0.91911-0.03749-0.92949-0.41878-0.66855-0.97301 0.66592-2.7089 1.3784-3.9987 1.6413-0.89545 0.18248-2.5352 0.21811-3.5183 0.0764zm3.4713-3.3756c2.0077-0.57871 3.6426-2.2457 4.2367-4.3199 0.23766-0.8297 0.22247-2.6136-0.02963-3.4801-0.56674-1.9478-2.0817-3.5301-4.0351-4.2144-0.52934-0.18542-0.74072-0.20926-1.9076-0.21507-1.1531-6e-3 -1.3888 0.0176-1.9423 0.19224-3.1733 1.0013-4.97 4.2974-4.1503 7.6136 0.27503 1.1126 0.75059 1.9449 1.6063 2.8112 1.0116 1.0242 2.2583 1.6662 3.5127 1.8091 0.68754 0.0783 2.1147-0.0254 2.7093-0.19677zm19.727 3.392c-1.8364-0.24059-3.6227-1.202-4.7265-2.5436-1.0005-1.2162-1.5045-2.6988-1.6673-4.9044-0.05496-0.74486-0.08128-3.1925-0.06611-6.1482l0.0252-4.9107h3.3867l0.0547 5.715c0.04422 4.6205 0.07894 5.8204 0.18128 6.2653 0.25588 1.1125 0.59083 1.7768 1.1781 2.3365 0.73916 0.70445 1.3783 0.95078 2.6499 1.0212 2.0415 0.11311 3.4962-0.72188 4.1005-2.3537 0.37549-1.014 0.37448-0.99709 0.42387-7.1l0.04762-5.8843h3.3867v12.023l-0.24055 0.96956c-0.67249 2.7105-2.4639 4.5621-5.1353 5.3078-0.79861 0.22293-2.6596 0.32988-3.5988 0.20683zm17.946-6e-3c-1.8874-0.19963-3.9959-1.0883-5.0983-2.1488-0.33761-0.32479-0.6134-0.63172-0.61287-0.68205 1e-3 -0.11448 1.7934-2.2479 1.9726-2.3482 0.0957-0.0536 0.28857 0.0454 0.70878 0.36368 0.76916 0.58262 1.4197 0.93026 2.4399 1.304 0.79702 0.29191 0.90919 0.31072 1.9129 0.32072l1.0662 0.0106 0.66943-0.3368c0.89778-0.4517 1.1437-0.79491 1.2002-1.6747 0.10635-1.657-0.62405-2.2031-4.3831-3.277-1.7233-0.49228-2.3304-0.80165-3.132-1.5958-0.76691-0.7598-1.0991-1.3806-1.3176-2.4627-0.49413-2.4471 0.71009-4.7432 3.0493-5.8141 2.3891-1.0938 6.2706-0.56122 8.5757 1.1766 0.24447 0.18431 0.4445 0.37311 0.4445 0.41956 0 0.10054-1.6801 2.5196-1.7499 2.5196-0.0265 0-0.26992-0.13465-0.54084-0.29923-1.1861-0.7205-2.502-1.1396-3.6163-1.1516-0.81564-9e-3 -1.2261 0.0658-1.7129 0.31146-0.90603 0.45712-1.2739 1.2612-0.99807 2.1818 0.23985 0.80058 0.99879 1.2194 3.7074 2.0459 2.2794 0.69555 2.8936 0.99388 3.6947 1.7947 1.0354 1.0349 1.4777 2.1828 1.4825 3.8475 5e-3 1.6661-0.50297 2.8692-1.6717 3.9607-0.71957 0.672-1.5226 1.1107-2.522 1.3779-0.70355 0.18807-2.5171 0.26749-3.5687 0.15627zm-73.953-15.24v-14.903h3.7242l0.02172 6.1172 0.02172 6.1172h12.785l0.02172-6.1172 0.02172-6.1172h3.7247l-0.0214 14.88-0.0214 14.88h-3.6407l-0.08466-14.224h-12.785l-0.08466 14.224-3.683 0.0456zm84.413 14.817c0-0.0453 2.0772-3.3622 4.616-7.371s4.6248-7.3341 4.6355-7.3895c0.0148-0.0765-0.99384-0.11108-4.1715-0.14318l-4.191-0.0423v-3.1327l6.9638-0.0217c4.4746-0.0139 6.9638 8e-3 6.9638 0.0608 0 0.0453-2.098 3.3789-4.6622 7.408-2.5642 4.0291-4.6384 7.364-4.6093 7.4111 0.0346 0.0559 1.7054 0.0855 4.8315 0.0855h4.7787v3.2173h-7.5777c-4.8502 0-7.5777-0.0296-7.5777-0.0823z" fill="#f9bb0c"/>
   <path d="m69.581 127.19c-3.6851-0.53104-6.8307-3.3447-7.7457-6.9284-0.38549-1.5098-0.3687-3.5105 0.04266-5.0851 0.64928-2.4852 2.5556-4.7698 4.9514-5.9339 2.4624-1.1965 5.3961-1.2797 8.128-0.23061 0.75825 0.29118 1.7315 0.81678 2.106 1.1374 0.41619 0.35624 0.42293 0.34602 0.45367-0.68786l0.02266-0.762h3.3867v18.119h-3.3867l-0.02284-0.67733c-0.03099-0.91911-0.03749-0.92949-0.41878-0.66855-0.97301 0.66592-2.7089 1.3784-3.9987 1.6413-0.89545 0.18248-2.5352 0.21811-3.5183 0.0764zm3.4713-3.3756c2.0077-0.57871 3.6426-2.2457 4.2367-4.3199 0.23766-0.8297 0.22247-2.6136-0.02963-3.4801-0.56674-1.9478-2.0817-3.5301-4.0351-4.2144-0.52934-0.18542-0.74072-0.20926-1.9076-0.21507-1.1531-6e-3 -1.3888 0.0176-1.9423 0.19224-3.1733 1.0013-4.97 4.2974-4.1503 7.6136 0.27503 1.1126 0.75059 1.9449 1.6063 2.8112 1.0116 1.0242 2.2583 1.6662 3.5127 1.8091 0.68754 0.0783 2.1147-0.0254 2.7093-0.19677zm37.674 3.3862c-1.8874-0.19963-3.9959-1.0883-5.0983-2.1488-0.33761-0.32479-0.6134-0.63172-0.61287-0.68205 1e-3 -0.11448 1.7934-2.2479 1.9726-2.3482 0.0957-0.0536 0.28857 0.0454 0.70878 0.36368 0.76916 0.58262 1.4197 0.93026 2.4399 1.304 0.79702 0.29191 0.90919 0.31072 1.9129 0.32072l1.0662 0.0106 0.66943-0.3368c0.89778-0.4517 1.1437-0.79491 1.2002-1.6747 0.10635-1.657-0.62405-2.2031-4.3831-3.277-1.7233-0.49228-2.3304-0.80165-3.132-1.5958-0.76691-0.7598-1.0991-1.3806-1.3176-2.4627-0.49413-2.4471 0.71009-4.7432 3.0493-5.8141 2.3891-1.0938 6.2706-0.56122 8.5757 1.1766 0.24447 0.18431 0.4445 0.37311 0.4445 0.41956 0 0.10054-1.6801 2.5196-1.7499 2.5196-0.0265 0-0.26992-0.13465-0.54084-0.29923-1.1861-0.7205-2.502-1.1396-3.6163-1.1516-0.81564-9e-3 -1.2261 0.0658-1.7129 0.31146-0.90603 0.45712-1.2739 1.2612-0.99807 2.1818 0.23985 0.80058 0.99879 1.2194 3.7074 2.0459 2.2794 0.69555 2.8936 0.99388 3.6947 1.7947 1.0354 1.0349 1.4777 2.1828 1.4825 3.8475 5e-3 1.6661-0.50297 2.8692-1.6717 3.9607-0.71957 0.672-1.5226 1.1107-2.522 1.3779-0.70355 0.18807-2.5171 0.26749-3.5687 0.15627zm-73.953-15.24v-14.903h3.7242l0.02172 6.1172 0.02172 6.1172h12.785l0.02172-6.1172 0.02172-6.1172h3.7247l-0.0214 14.88-0.0214 14.88h-3.6407l-0.08466-14.224h-12.785l-0.08466 14.224-3.683 0.0456zm84.413 14.817c0-0.0453 2.0772-3.3622 4.616-7.371s4.6248-7.3341 4.6355-7.3895c0.0148-0.0765-0.99384-0.11108-4.1715-0.14318l-4.191-0.0423v-3.1327l6.9638-0.0217c4.4746-0.0139 6.9638 8e-3 6.9638 0.0608 0 0.0453-2.098 3.3789-4.6622 7.408-2.5642 4.0291-4.6384 7.364-4.6093 7.4111 0.0346 0.0559 1.7054 0.0855 4.8315 0.0855h4.7787v3.2173h-7.5777c-4.8502 0-7.5777-0.0296-7.5777-0.0823z" fill="#4385f1"/>
   <path d="m69.581 127.19c-3.6851-0.53104-6.8307-3.3447-7.7457-6.9284-0.38549-1.5098-0.3687-3.5105 0.04266-5.0851 0.64928-2.4852 2.5556-4.7698 4.9514-5.9339 2.4624-1.1965 5.3961-1.2797 8.128-0.23061 0.75825 0.29118 1.7315 0.81678 2.106 1.1374 0.41619 0.35624 0.42293 0.34602 0.45367-0.68786l0.02266-0.762h3.3867v18.119h-3.3867l-0.02284-0.67733c-0.03099-0.91911-0.03749-0.92949-0.41878-0.66855-0.97301 0.66592-2.7089 1.3784-3.9987 1.6413-0.89545 0.18248-2.5352 0.21811-3.5183 0.0764zm3.4713-3.3756c2.0077-0.57871 3.6426-2.2457 4.2367-4.3199 0.23766-0.8297 0.22247-2.6136-0.02963-3.4801-0.56674-1.9478-2.0817-3.5301-4.0351-4.2144-0.52934-0.18542-0.74072-0.20926-1.9076-0.21507-1.1531-6e-3 -1.3888 0.0176-1.9423 0.19224-3.1733 1.0013-4.97 4.2974-4.1503 7.6136 0.27503 1.1126 0.75059 1.9449 1.6063 2.8112 1.0116 1.0242 2.2583 1.6662 3.5127 1.8091 0.68754 0.0783 2.1147-0.0254 2.7093-0.19677zm48.179 2.9666c-0.027-0.0437 2.0289-3.3607 4.5687-7.371 2.5398-4.0103 4.6266-7.3369 4.6373-7.3924 0.0148-0.0765-0.99384-0.11108-4.1715-0.14318l-4.191-0.0423v-3.1327l6.8956-0.0217c3.8396-0.0121 6.9283 0.011 6.9694 0.0521 0.0419 0.0419-1.9252 3.2125-4.5572 7.3453-2.5471 3.9994-4.6495 7.3382-4.6721 7.4197-0.0388 0.13987 0.23001 0.14817 4.7948 0.14817h4.8359v3.2173h-7.5303c-4.6011 0-7.5494-0.0309-7.5795-0.0795z" fill="#e94335"/>
   <path d="m121.23 126.78c-0.027-0.0437 2.0289-3.3607 4.5687-7.371 2.5398-4.0103 4.6266-7.3369 4.6373-7.3924 0.0148-0.0765-0.99384-0.11108-4.1715-0.14318l-4.191-0.0423v-3.1327l6.8956-0.0217c3.8396-0.0121 6.9283 0.011 6.9694 0.0521 0.0419 0.0419-1.9252 3.2125-4.5572 7.3453-2.5471 3.9994-4.6495 7.3382-4.6721 7.4197-0.0388 0.13987 0.23001 0.14817 4.7948 0.14817h4.8359v3.2173h-7.5303c-4.6011 0-7.5494-0.0309-7.5795-0.0795z" fill="#34a753"/>
  </g>
 </g>
</svg>
